<svg width="93" height="25" viewBox="0 0 93 25" fill="none" xmlns="http://www.w3.org/2000/svg">
<path d="M3.90206 11.574H11.6761V2.318H0.366061V5.048H8.16606V8.87H0.392061V18.724H2.55006C6.89206 18.724 10.4021 18.568 14.3021 17.892L13.9381 15.11C10.5581 15.682 7.54206 15.864 3.90206 15.89V11.574ZM15.6021 0.263999V24.288H19.0341V0.263999H15.6021ZM30.056 15.838H26.936V10.664H30.056V15.838ZM35.464 9.052H33.228V2.474H30.056V7.96H26.936V2.448H23.712V18.568H33.228V11.808H35.464V23.196H38.662V0.705998H35.464V9.052ZM40.326 0.263999V24.21H43.576V0.263999H40.326ZM53.87 16.54C52.258 16.54 51.062 15.448 51.062 13.628C51.062 11.808 52.258 10.69 53.87 10.69C55.482 10.69 56.652 11.808 56.652 13.602C56.652 15.448 55.482 16.54 53.87 16.54ZM53.87 7.908C50.386 7.908 47.786 10.274 47.786 13.602C47.786 16.982 50.386 19.348 53.87 19.348C57.328 19.348 59.902 16.982 59.902 13.602C59.902 10.274 57.328 7.908 53.87 7.908ZM55.56 0.705998H52.128V3.826H46.824V6.556H60.76V3.826H55.56V0.705998ZM69.184 9.65H65.752V0.289999H62.32V24.236H65.752V12.484H69.184V9.65ZM74.408 7.908C74.408 5.958 75.76 4.788 77.554 4.788C79.322 4.788 80.7 5.958 80.7 7.908C80.7 9.858 79.322 11.028 77.554 11.028C75.76 11.028 74.408 9.858 74.408 7.908ZM84.028 7.908C84.028 4.372 81.194 1.824 77.554 1.824C73.888 1.824 71.054 4.372 71.054 7.908C71.054 11.418 73.888 13.992 77.554 13.992C81.194 13.992 84.028 11.418 84.028 7.908ZM77.71 15.916H74.278V23.82H90.58V21.09H77.71V15.916ZM92.79 7.024V4.216H89.722V0.315999H86.29V17.71H89.722V12.744H92.79V9.962H89.722V7.024H92.79Z" fill="#FAC300"/>
</svg>
